<svg version="1.1" viewBox="0.0 0.0 1600.0 400.0" fill="none" stroke="none" stroke-linecap="square" stroke-miterlimit="10" xmlns:xlink="http://www.w3.org/1999/xlink" xmlns="http://www.w3.org/2000/svg"><clipPath id="p.0"><path d="m0 0l1600.0 0l0 400.0l-1600.0 0l0 -400.0z" clip-rule="nonzero"/></clipPath><g clip-path="url(#p.0)"><path fill="#000000" fill-opacity="0.0" d="m0 0l1600.0 0l0 400.0l-1600.0 0z" fill-rule="evenodd"/><path fill="#000000" fill-opacity="0.0" d="m0 0l1600.0 0l0 400.0l-1600.0 0z" fill-rule="evenodd"/><path fill="#bb86fc" d="m69.54181 374.3606l0 -226.90625l32.8125 0l4.09375 22.453125q7.875 -12.6875 20.921875 -19.609375q13.046875 -6.921875 29.09375 -6.921875q19.6875 0 34.625 10.9375q14.953125 10.9375 22.671875 29.828125q7.734375 18.875 7.734375 42.640625q0 37.1875 -18.015625 60.59375q-18.0 23.40625 -48.765625 23.40625q-15.171875 0 -27.5 -6.046875q-12.3125 -6.0625 -20.625 -16.40625q1.171875 21.0 1.171875 23.625l0 60.515625l-38.21875 1.890625zm77.0 -92.75q17.0625 0 26.90625 -14.28125q9.84375 -14.296875 9.84375 -40.828125q0 -26.984375 -9.921875 -40.546875q-9.90625 -13.5625 -27.5625 -13.5625q-37.90625 0 -38.34375 51.625q0 29.75 9.84375 43.671875q9.84375 13.921875 29.234375 13.921875zm147.87384 29.171875q-22.3125 0 -36.09375 -12.3125q-13.781265 -12.328125 -13.781265 -35.515625q0 -24.9375 16.32814 -36.96875q16.34375 -12.03125 49.296875 -15.234375q4.515625 -0.59375 9.765625 -1.171875q5.25 -0.578125 11.8125 -1.15625q6.5625 -0.59375 10.359375 -1.03125l0 -8.453125q0 -14.59375 -6.71875 -21.21875q-6.703125 -6.640625 -20.40625 -6.640625q-19.546875 0 -48.265625 10.9375q-0.15625 -0.4375 -4.828125 -13.265625q-4.65625 -12.84375 -4.796875 -13.125q28.28125 -12.109375 61.234375 -12.109375q32.375 0 47.109375 14.078125q14.734375 14.0625 14.734375 45.5625l0 104.5625l-28.296875 0q-0.140625 -0.578125 -3.203125 -9.765625q-3.0625 -9.1875 -3.0625 -9.78125q-11.96875 11.671875 -23.421875 17.140625q-11.4375 5.46875 -27.765625 5.46875zm10.359375 -27.125q13.265625 0 23.109375 -6.34375q9.84375 -6.34375 14.0625 -15.390625l0 -30.90625q-0.4375 0 -7.65625 0.59375q-7.21875 0.578125 -7.796875 0.578125q-23.1875 2.03125 -33.984375 8.75q-10.78125 6.703125 -10.78125 21.578125q0 10.203125 5.96875 15.671875q5.984375 5.46875 17.078125 5.46875zm114.03583 24.0625l0 -160.26562l32.078125 0l4.953125 24.5q15.75 -25.234375 45.640625 -25.234375q6.28125 0 10.21875 0.59375l-0.59375 31.9375q-5.828125 -0.875 -12.09375 -0.875q-21.15625 0 -31.578125 11.234375q-10.421875 11.21875 -10.421875 31.203125l0 86.90625l-38.203125 0zm180.23029 2.1875q-16.328125 0 -27.1875 -3.859375q-10.859375 -3.875 -16.984375 -12.1875q-6.125 -8.3125 -8.6875 -19.609375q-2.546875 -11.296875 -2.546875 -27.921875l0 -75.6875l-26.25 0l1.453125 -20.703125l27.421875 -2.484375l12.25 -43.453125l23.328125 -0.15625l0 43.609375l39.8125 0l0 23.1875l-39.8125 0l0 76.40625q0 18.234375 5.25 25.96875q5.25 7.71875 19.390625 7.71875q8.3125 0 17.796875 -1.453125l1.015625 27.421875q-0.28125 0 -3.5625 0.65625q-3.28125 0.65625 -6.28125 1.15625q-2.984375 0.515625 -7.65625 0.953125q-4.65625 0.4375 -8.75 0.4375zm61.553223 65.328125q-9.34375 0 -19.84375 -1.15625l-1.890625 -29.609375q6.703125 0.734375 17.0625 0.734375q13.265625 0 21.28125 -5.25q8.03125 -5.25 13.28125 -18.671875q0.578125 -1.453125 5.828125 -16.484375l-64.453125 -157.34375l40.828125 0l42.140625 116.21875q4.671875 -17.34375 20.921875 -64.4375q16.265625 -47.109375 17.875 -51.78125l40.828125 0q-66.640625 176.15625 -67.21875 177.625q-10.359375 26.96875 -26.109375 38.5625q-15.75 11.59375 -40.53125 11.59375z" fill-rule="nonzero"/><path fill="#03dac6" d="m866.05743 310.64185q-35.4375 0 -56.71875 -12.109375l3.9375 -28.734375q9.625 5.25 24.5 9.40625q14.875 4.15625 27.125 4.15625q12.671875 0 19.75 -4.734375q7.078125 -4.734375 7.21875 -13.921875q0 -8.3125 -6.640625 -13.125q-6.625 -4.8125 -25.296875 -11.96875q-6.40625 -2.328125 -8.3125 -3.0625q-22.15625 -8.59375 -31.9375 -19.15625q-9.765625 -10.578125 -9.765625 -28.671875q0 -21.875 15.8125 -33.53125q15.828125 -11.671875 44.125 -11.671875q30.625 0 53.8125 11.515625l-9.484375 26.40625q-22.890625 -10.65625 -43.609375 -10.65625q-11.515625 0 -18.0 3.875q-6.484375 3.859375 -6.484375 11.734375q0 7.4375 6.265625 11.59375q6.265625 4.15625 24.5 10.859375q0.578125 0.15625 3.78125 1.328125q3.21875 1.15625 4.96875 1.890625q22.015625 8.015625 32.359375 19.171875q10.359375 11.15625 10.359375 29.09375q-0.140625 24.0625 -16.328125 37.1875q-16.1875 13.125 -45.9375 13.125zm162.59393 0.140625q-36.734375 0 -57.234375 -21.875q-20.484375 -21.875 -20.484375 -62.5625q0 -39.375 21.5 -61.09375q21.515625 -21.734375 56.65625 -21.734375q28.15625 0 47.546875 12.109375l-9.046875 27.265625q-19.828125 -10.359375 -36.890625 -10.359375q-19.390625 0 -30.546875 13.859375q-11.15625 13.859375 -11.15625 40.390625q0 26.828125 11.0 40.828125q11.015625 14.0 31.140625 14.0q21.0 0 40.390625 -12.390625l3.65625 29.015625q-10.0625 6.71875 -20.859375 9.625q-10.796875 2.921875 -25.671875 2.921875zm145.547 -29.015625q19.390625 0 29.15625 -14.140625q9.78125 -14.15625 9.78125 -40.546875q0 -26.6875 -9.78125 -40.6875q-9.765625 -14.0 -29.453125 -14.0q-19.390625 0 -29.234375 14.078125q-9.84375 14.0625 -9.84375 40.75q0 26.25 9.90625 40.40625q9.921875 14.140625 29.46875 14.140625zm-1.03125 29.015625q-35.578125 0 -56.0 -23.03125q-20.40625 -23.046875 -20.40625 -60.671875q0 -38.796875 20.40625 -61.171875q20.421875 -22.390625 57.609375 -22.390625q35.875 0 56.21875 22.828125q20.34375 22.8125 20.34375 60.734375q0 38.34375 -20.5625 61.03125q-20.5625 22.671875 -57.609375 22.671875zm225.01453 -15.671875q-19.09375 15.671875 -50.3125 15.671875q-31.203125 0 -50.234375 -15.59375q-19.03125 -15.609375 -19.03125 -45.796875l0 -101.9375l38.359375 0l0 100.46875q0 17.9375 7.5 25.96875q7.515625 8.015625 23.84375 8.015625q16.046875 0 23.40625 -7.9375q7.375 -7.953125 7.375 -26.046875l0 -100.46875l38.203125 0l0 101.9375q0 30.03125 -19.109375 45.71875zm117.97339 14.796875q-16.328125 0 -27.1875 -3.859375q-10.859375 -3.875 -16.984375 -12.1875q-6.125 -8.3125 -8.6875 -19.609375q-2.546875 -11.296875 -2.546875 -27.921875l0 -75.6875l-26.25 0l1.453125 -20.703125l27.421875 -2.484375l12.25 -43.453125l23.328125 -0.15625l0 43.609375l39.8125 0l0 23.1875l-39.8125 0l0 76.40625q0 18.234375 5.25 25.96875q5.25 7.71875 19.390625 7.71875q8.3125 0 17.796875 -1.453125l1.015625 27.421875q-0.28125 0 -3.5625 0.65625q-3.28125 0.65625 -6.28125 1.15625q-2.984375 0.515625 -7.65625 0.953125q-4.65625 0.4375 -8.75 0.4375z" fill-rule="nonzero"/></g></svg>